<mxfile host="app.diagrams.net" modified="2021-02-02T08:43:35.538Z" agent="5.0 (Macintosh; Intel Mac OS X 11_1_0) AppleWebKit/537.36 (KHTML, like Gecko) Chrome/88.0.4324.96 Safari/537.36" etag="xULXVu6nk_zCdxpVxyBd" version="14.2.9" type="github">
  <diagram id="esxI2AxXdb3uIl4lnedx" name="Page-1">
    <mxGraphModel dx="946" dy="499" grid="1" gridSize="10" guides="1" tooltips="1" connect="1" arrows="1" fold="1" page="1" pageScale="1" pageWidth="3300" pageHeight="4681" math="0" shadow="0">
      <root>
        <mxCell id="0" />
        <mxCell id="1" parent="0" />
        <mxCell id="GG8mvKQF839j5vnF_w86-12" style="edgeStyle=orthogonalEdgeStyle;rounded=0;orthogonalLoop=1;jettySize=auto;html=1;exitX=0.5;exitY=1;exitDx=0;exitDy=0;" edge="1" parent="1" source="GG8mvKQF839j5vnF_w86-1" target="GG8mvKQF839j5vnF_w86-4">
          <mxGeometry relative="1" as="geometry" />
        </mxCell>
        <mxCell id="GG8mvKQF839j5vnF_w86-1" value="上传excel表格" style="rounded=0;whiteSpace=wrap;html=1;" vertex="1" parent="1">
          <mxGeometry x="110" y="110" width="120" height="60" as="geometry" />
        </mxCell>
        <mxCell id="GG8mvKQF839j5vnF_w86-13" style="edgeStyle=orthogonalEdgeStyle;rounded=0;orthogonalLoop=1;jettySize=auto;html=1;exitX=0.5;exitY=1;exitDx=0;exitDy=0;" edge="1" parent="1" source="GG8mvKQF839j5vnF_w86-4" target="GG8mvKQF839j5vnF_w86-5">
          <mxGeometry relative="1" as="geometry" />
        </mxCell>
        <mxCell id="GG8mvKQF839j5vnF_w86-17" style="rounded=0;orthogonalLoop=1;jettySize=auto;html=1;exitX=1;exitY=0.5;exitDx=0;exitDy=0;entryX=0;entryY=0.617;entryDx=0;entryDy=0;entryPerimeter=0;shape=flexArrow;" edge="1" parent="1" source="GG8mvKQF839j5vnF_w86-4" target="GG8mvKQF839j5vnF_w86-6">
          <mxGeometry relative="1" as="geometry" />
        </mxCell>
        <mxCell id="GG8mvKQF839j5vnF_w86-18" style="edgeStyle=none;shape=flexArrow;rounded=0;orthogonalLoop=1;jettySize=auto;html=1;exitX=0.75;exitY=1;exitDx=0;exitDy=0;entryX=0;entryY=0.25;entryDx=0;entryDy=0;" edge="1" parent="1" source="GG8mvKQF839j5vnF_w86-4" target="GG8mvKQF839j5vnF_w86-9">
          <mxGeometry relative="1" as="geometry" />
        </mxCell>
        <mxCell id="GG8mvKQF839j5vnF_w86-4" value="验证文件，并按照4000拆分表格" style="rounded=0;whiteSpace=wrap;html=1;" vertex="1" parent="1">
          <mxGeometry x="100" y="240" width="120" height="60" as="geometry" />
        </mxCell>
        <mxCell id="GG8mvKQF839j5vnF_w86-5" value="oss" style="rounded=0;whiteSpace=wrap;html=1;" vertex="1" parent="1">
          <mxGeometry x="100" y="380" width="120" height="60" as="geometry" />
        </mxCell>
        <mxCell id="GG8mvKQF839j5vnF_w86-6" value="batch_operate_upload" style="rounded=0;whiteSpace=wrap;html=1;" vertex="1" parent="1">
          <mxGeometry x="400" y="380" width="120" height="60" as="geometry" />
        </mxCell>
        <mxCell id="GG8mvKQF839j5vnF_w86-7" value="RocketMq" style="shape=cube;whiteSpace=wrap;html=1;boundedLbl=1;backgroundOutline=1;darkOpacity=0.05;darkOpacity2=0.1;" vertex="1" parent="1">
          <mxGeometry x="390" y="200" width="120" height="80" as="geometry" />
        </mxCell>
        <mxCell id="GG8mvKQF839j5vnF_w86-8" value="redis" style="shape=cylinder3;whiteSpace=wrap;html=1;boundedLbl=1;backgroundOutline=1;size=15;" vertex="1" parent="1">
          <mxGeometry x="420" y="70" width="60" height="80" as="geometry" />
        </mxCell>
        <mxCell id="GG8mvKQF839j5vnF_w86-9" value="batch_operate_upload_sub" style="rounded=0;whiteSpace=wrap;html=1;" vertex="1" parent="1">
          <mxGeometry x="390" y="500" width="200" height="60" as="geometry" />
        </mxCell>
        <mxCell id="GG8mvKQF839j5vnF_w86-10" value="&lt;font style=&quot;font-size: 22px&quot;&gt;&lt;font style=&quot;vertical-align: inherit&quot;&gt;&lt;font style=&quot;vertical-align: inherit&quot;&gt;消费支出&lt;/font&gt;&lt;/font&gt;&lt;br&gt;&lt;font style=&quot;vertical-align: inherit&quot;&gt;&lt;font style=&quot;vertical-align: inherit&quot;&gt;线程池&lt;/font&gt;&lt;/font&gt;&lt;br&gt;&lt;font style=&quot;vertical-align: inherit&quot;&gt;&lt;font style=&quot;vertical-align: inherit&quot;&gt;文件解析&lt;/font&gt;&lt;/font&gt;&lt;br&gt;&lt;/font&gt;" style="whiteSpace=wrap;html=1;aspect=fixed;" vertex="1" parent="1">
          <mxGeometry x="660" y="130" width="190" height="190" as="geometry" />
        </mxCell>
        <mxCell id="GG8mvKQF839j5vnF_w86-11" value="batch_xxxx_xxxx" style="rounded=0;whiteSpace=wrap;html=1;" vertex="1" parent="1">
          <mxGeometry x="700" y="420" width="120" height="60" as="geometry" />
        </mxCell>
        <mxCell id="GG8mvKQF839j5vnF_w86-20" value="" style="endArrow=classic;html=1;exitX=1;exitY=0.4;exitDx=0;exitDy=0;exitPerimeter=0;entryX=0.008;entryY=0.513;entryDx=0;entryDy=0;entryPerimeter=0;" edge="1" parent="1" source="GG8mvKQF839j5vnF_w86-4" target="GG8mvKQF839j5vnF_w86-7">
          <mxGeometry width="50" height="50" relative="1" as="geometry">
            <mxPoint x="390" y="360" as="sourcePoint" />
            <mxPoint x="440" y="310" as="targetPoint" />
          </mxGeometry>
        </mxCell>
        <mxCell id="GG8mvKQF839j5vnF_w86-21" value="" style="endArrow=none;dashed=1;html=1;dashPattern=1 3;strokeWidth=2;entryX=0;entryY=0;entryDx=0;entryDy=52.5;entryPerimeter=0;exitX=1;exitY=0.5;exitDx=0;exitDy=0;" edge="1" parent="1" source="GG8mvKQF839j5vnF_w86-4" target="GG8mvKQF839j5vnF_w86-8">
          <mxGeometry width="50" height="50" relative="1" as="geometry">
            <mxPoint x="390" y="230" as="sourcePoint" />
            <mxPoint x="440" y="180" as="targetPoint" />
          </mxGeometry>
        </mxCell>
        <mxCell id="GG8mvKQF839j5vnF_w86-22" value="" style="endArrow=none;dashed=1;html=1;dashPattern=1 3;strokeWidth=2;exitX=1;exitY=0.5;exitDx=0;exitDy=0;exitPerimeter=0;" edge="1" parent="1" source="GG8mvKQF839j5vnF_w86-8" target="GG8mvKQF839j5vnF_w86-10">
          <mxGeometry width="50" height="50" relative="1" as="geometry">
            <mxPoint x="390" y="310" as="sourcePoint" />
            <mxPoint x="440" y="260" as="targetPoint" />
          </mxGeometry>
        </mxCell>
      </root>
    </mxGraphModel>
  </diagram>
</mxfile>
